# xmcd CD database file
#
# Track frame offsets:
#	150
#	14132
#	28908
#	40820
#	51799
#	64681
#	76875
#	91428
#	107258
#	121925
#	137487
#	152164
#	166098
#	178181
#	192329
#	206132
#	220232
#	234922
#	247653
#	260904
#	274924
#	288774
#	303508
#	318110
#
# Disc length: 4402 seconds
#
# Revision: 1
# Processed by: cddbd v1.5.2PL0 Copyright (c) Steve Scherf et al.
# Submitted via: CDex 1.79
#
DISCID=4e113018
DTITLE=VictoriaSpivey - The Victoria Spivey Collection1926-1937 [CD1)]
DYEAR=2015
DGENRE=Blues
TTITLE0=Black Snake Blues
TTITLE1=No More Jelly Bean Blues
TTITLE2=Hoodoo Man Blues
TTITLE3=Humored And Petted Blues [With Erby's Fidgety Five]
TTITLE4=Blue Valley Blues [With Erby's Fidgety Five]
TTITLE5=The Alligator Pond Went Dry
TTITLE6=T.B. Blues
TTITLE7=No. 12 Let Me Roam
TTITLE8=Garter Snake Blues
TTITLE9=Christmas Morning Blues
TTITLE10=Dope Head Blues
TTITLE11=Blood Thirsty Blues
TTITLE12=Your Worries Ain't Like Mine
TTITLE13=A Good Man Is Hard To Find
TTITLE14=Murder In The First Degree
TTITLE15=My Handy Man [With Clarence Williams' Blue Five]
TTITLE16=Organ Grinder Blues [With Clarence Williams' Blue Five]
TTITLE17=Toothache Blues [With Lonnie Johnson]
TTITLE18=Mosquito Fly And Flea
TTITLE19=Furniture Man Blues (Pt. 2) [With Lonnie Johnson]
TTITLE20=You Done Lost Your Good Thing Now [With Lonnie Johnson]
TTITLE21=Funny Feathers [With Louis Armstrong's Orchestra]
TTITLE22=How Do They Do It That Way [With Henry Allen Jr. and His Orchestra]
TTITLE23=Bloodhound Blues
EXTD=YEAR: 2015
EXTT0=
EXTT1=
EXTT2=
EXTT3=
EXTT4=
EXTT5=
EXTT6=
EXTT7=
EXTT8=
EXTT9=
EXTT10=
EXTT11=
EXTT12=
EXTT13=
EXTT14=
EXTT15=
EXTT16=
EXTT17=
EXTT18=
EXTT19=
EXTT20=
EXTT21=
EXTT22=
EXTT23=
PLAYORDER=
